# xmcd
#
# Track frame offsets:
#	207
#	17302
#	30422
#	45187
#	58390
#	72267
#	88217
#	100140
#	115402
#	124975
#	138140
#	147770
#	160810
#	178630
#	192747
#	210492
#
# Disc length: 3035 seconds
#
# Revision: 0
# Processed by: cddbd v1.5.1PL2 Copyright (c) Steve Scherf et al.
# Submitted via: audiograbber 1.83.01
#
DISCID=dd0bd910
DTITLE=Buddy Greene - Country Praise - So Far
DYEAR=1987
DGENRE=Gospel
TTITLE0=He is
TTITLE1=More like You
TTITLE2=Saviour, like a shepherd lead us - Psalm 23
TTITLE3=Holy Father
TTITLE4=Amazing Grace
TTITLE5=Keep your head in the word
TTITLE6=When the roll is called up yonder - I'll fly away
TTITLE7=Since Jesus came into my heart
TTITLE8=Lord I want to thank You
TTITLE9=Short of the mark
TTITLE10=How gracious is the Lord
TTITLE11=Rest awhile
TTITLE12=What a friend we have in Jesus - His eye is on the sparrow
TTITLE13=Oh Lord, how I need You
TTITLE14=Virtuous woman
TTITLE15=Praise You Lord
EXTD=
EXTT0=
EXTT1=
EXTT2=
EXTT3=
EXTT4=
EXTT5=
EXTT6=
EXTT7=
EXTT8=
EXTT9=
EXTT10=
EXTT11=
EXTT12=
EXTT13=
EXTT14=
EXTT15=
PLAYORDER=
